# xmcd
#
# Track frame offsets:
# 150
# 13312
# 25462
# 43362
# 60640
# 72630
# 87907
# 99587
# 118610
# 134340
# 143782
# 158555
#
# Disc length: 2239 seconds
#
#
# Revision: 0
# Processed by: cddbd v1.5.2PL0 Copyright (c) Steve Scherf et al.
# Submitted via: FreeRIP 2.951 
#
DISCID=ae08bd0c
DTITLE=White River - Best of White River
DYEAR=1995
DGENRE=Gospel
TTITLE0=Take Mine
TTITLE1=I Know the Way to Him by Heart
TTITLE2=Pardon Me
TTITLE3=One of These Days
TTITLE4=Have a Little Faith
TTITLE5=I Like My Gospel Country
TTITLE6=The Wrong Spot Lot
TTITLE7=Rodeo Preacher
TTITLE8=Could You Give Your Only Son
TTITLE9=The Only Way to Fly
TTITLE10=Goin' Away Party
TTITLE11=What Ya' Gonna Do?
EXTD=
EXTT0=
EXTT1=
EXTT2=
EXTT3=
EXTT4=
EXTT5=
EXTT6=
EXTT7=
EXTT8=
EXTT9=
EXTT10=
EXTT11=
PLAYORDER=
